<?xml version="1.0" encoding="utf-8"?>
<!-- Generator: Adobe Illustrator 22.0.1, SVG Export Plug-In . SVG Version: 6.00 Build 0)  -->
<svg version="1.1" id="Layer_1" xmlns="http://www.w3.org/2000/svg" xmlns:xlink="http://www.w3.org/1999/xlink" x="0px" y="0px"
	 viewBox="0 0 208.8 218.8" style="enable-background:new 0 0 208.8 218.8;" xml:space="preserve">
<style type="text/css">
	.st0{fill:#FFFFFF;}
</style>
<path class="st0" d="M89.9,49.8C85.7,60.2,80.5,71.4,76.8,83c-5.4,17-4.9,34.5-0.5,51.7c1.2,4.5-0.2,6.2-3.9,7.9
	c-10.3,4.7-20.4,9.7-30.6,14.6C33.3,120.7,52.6,70.2,89.9,49.8z"/>
<path class="st0" d="M203.4,120.8c-3.7,10.8-7.5,21.6-11.1,32.5c-1.7,5.4-5.1,6.3-10.9,4.5c15.8-27.1,19.1-55.2,7-84.2
	c-7.8-18.8-20.5-33.8-38.2-44.2C117.1,9.9,77.6,13.1,48,35.4c-19,14.3-30,33.7-35.1,56.9c-5.1,23.4,0.3,44.8,12.1,65.5
	c-4.9,1.5-8.3,1.1-10-3.8c-3.5-10.3-7.1-20.7-10.7-31c-0.3-0.8-0.7-1.5-1-2.2c0-8,0-16,0-24c0.4-0.9,1-1.8,1.1-2.7
	c2-13.7,6.8-26.3,14.2-37.9c13.4-21,31.9-35.4,55.9-42.3c7.8-2.2,15.8-3.4,23.8-5.1c4,0,8,0,12,0c2.9,0.5,5.8,1.1,8.7,1.6
	c41.4,7,73.4,37.7,82.1,78.8c0.6,2.9,1.5,5.7,2.3,8.6C203.4,105.4,203.4,113.1,203.4,120.8z"/>
<path class="st0" d="M97.4,208.8c-7-1.4-14-2.5-20.8-4.3c-22.5-5.8-40.2-18.5-54.3-38.3c2.3,0,4,0,5.7,0c22,0,44-0.1,66,0.1
	c4.3,0,5.8-1.1,5.8-5.6c0.2-25.1,0.7-50.3,1.1-75.4c0.3-18.8,0.6-37.6,1-56.4c0-1.1,0.3-2.2,1.2-3.3c3.3,8.8,1.1,18.2,2.5,28.2
	c10.1-4.7,19.6-9.1,30.7-14.3c-2.8,38.9,8.6,72.1,35.3,100.6c-9.6,1.9-18.7,3.6-27.9,5.4c-10.6,2-21.2,4-31.8,6.2
	c-1.7,0.4-4.3,1.8-4.5,2.9c-0.4,3.5,0,7.2,0.5,10.8c0.1,0.5,3,0.8,4.6,0.8c22.2,0,44.3,0,66.5,0c1.6,0,3.2,0,5.9,0
	c-8.8,10.4-17.6,19.5-28.2,26.4c-14.8,9.6-31.2,14.7-48.9,15.3c-1.5,0.1-2.9,0.6-4.3,1C101.4,208.8,99.4,208.8,97.4,208.8z"/>
</svg>
